<svg xmlns="http://www.w3.org/2000/svg" viewBox="0 0 1200 300" preserveAspectRatio="xMidYMid slice">
  <defs>
    <linearGradient id="sky" x1="0%" y1="0%" x2="100%" y2="100%">
      <stop offset="0%" stop-color="#1e0b36"/>
      <stop offset="35%" stop-color="#9d1c7f"/>
      <stop offset="65%" stop-color="#f03067"/>
      <stop offset="100%" stop-color="#f7941d"/>
    </linearGradient>
    <linearGradient id="sun" x1="0%" y1="0%" x2="0%" y2="100%">
      <stop offset="0%" stop-color="#ffd166" stop-opacity="0.9"/>
      <stop offset="100%" stop-color="#f7941d" stop-opacity="0"/>
    </linearGradient>
  </defs>
  <rect width="1200" height="300" fill="url(#sky)"/>
  <circle cx="980" cy="80" r="90" fill="url(#sun)"/>
  <path fill="#0a1628" opacity="0.55" d="M0 220 Q200 180 400 210 T800 200 T1200 230 L1200 300 L0 300 Z"/>
  <path fill="#061018" opacity="0.7" d="M0 250 Q300 210 600 240 T1200 255 L1200 300 L0 300 Z"/>
  <ellipse cx="180" cy="250" rx="28" ry="70" fill="#0d2818" opacity="0.85"/>
  <ellipse cx="220" cy="245" rx="22" ry="58" fill="#0d2818" opacity="0.85"/>
  <ellipse cx="1020" cy="248" rx="24" ry="62" fill="#0d2818" opacity="0.85"/>
  <rect x="720" y="190" width="180" height="55" rx="8" fill="#1a1a2e" opacity="0.75"/>
  <rect x="740" y="205" width="140" height="28" rx="4" fill="#2a2a4a" opacity="0.6"/>
</svg>
